{"title":"The.Eye.(2002).DVDrip","uid":6974238,"size":726092188,"categoryP":"video","categoryS":"movies","magnet":"?xt=urn:btih:601fcafba69a6ccadd3452a5d82a2deb3d0d562f&amp;dn=The.Eye.%282002%29.DVDrip&amp;tr=udp%3A%2F%2Ftracker.openbittorrent.com%3A80&amp;tr=udp%3A%2F%2Fopen.demonii.com%3A1337&amp;tr=udp%3A%2F%2Ftracker.coppersurfer.tk%3A6969&amp;tr=udp%3A%2F%2Fexodus.desync.com%3A6969","seeders":0,"leechers":1,"uploader":"xiliaeuro","files":2,"time":1327189293,"description":"IMDB Ratings: 6.8/10\n\nA blind girl gets a cornea transplant so that she would be able to see again. However, she got more than what she bargained for when she realized she could even see ghosts...\n\n\n\n\nFormat                         : AVI\nFormat/Info                    : Audio Video Interleave\nFile size                      : 692 MiB\nDuration                       : 1h 35mn\nOverall bit rate               : 1 017 Kbps\n\nVideo\nID                             : 0\nFormat                         : MPEG-4 Visual\nFormat settings, BVOP          : Yes\nFormat settings, QPel          : No\nFormat settings, GMC           : No warppoints\nFormat settings, Matrix        : Default (H.263)\nCodec ID                       : DX50\nCodec ID/Hint                  : DivX 5\nDuration                       : 1h 35mn\nBit rate                       : 907 Kbps\nWidth                          : 640 pixels\nHeight                         : 368 pixels\nDisplay aspect ratio           : 16:9\nFrame rate                     : 25.000 fps\nColor space                    : YUV\nChroma subsampling             : 4:2:0\nBit depth                      : 8 bits\nScan type                      : Progressive\nCompression mode               : Lossy\nBits/(Pixel*Frame)             : 0.154\nStream size                    : 618 MiB (89%)\nTitle                          : NeoVideo92CF\nWriting library                : DivX 5.0.2 (UTC 2002-05-16)\n\nAudio\nID                             : 1\nFormat                         : MPEG Audio\nFormat version                 : Version 1\nFormat profile                 : Layer 3\nMode                           : Joint stereo\nMode extension                 : MS Stereo\nCodec ID                       : 55\nCodec ID/Hint                  : MP3\nDuration                       : 1h 35mn\nBit rate mode                  : Constant\nBit rate                       : 96.0 Kbps\nChannel(s)                     : 2 channels\nSampling rate                  : 48.0 KHz\nCompression mode               : Lossy\nStream size                    : 65.4 MiB (9%)\nAlignment                      : Split accross interleaves\nInterleave, duration           : 24 ms (0.60 video frame)\nTitle                          : NeoSound92CF0\n\n","torrent":{"xt":"urn:btih:601fcafba69a6ccadd3452a5d82a2deb3d0d562f","amp;dn":"The.Eye.%282002%29.DVDrip","amp;tr":["udp%3A%2F%2Ftracker.openbittorrent.com%3A80","udp%3A%2F%2Fopen.demonii.com%3A1337","udp%3A%2F%2Ftracker.coppersurfer.tk%3A6969","udp%3A%2F%2Fexodus.desync.com%3A6969"],"infoHash":"601fcafba69a6ccadd3452a5d82a2deb3d0d562f","infoHashBuffer":{"type":"Buffer","data":[96,31,202,251,166,154,108,202,221,52,82,165,216,42,45,235,61,13,86,47]},"announce":[],"urlList":[]}}